<svg width="17" height="17" viewBox="0 0 17 17" fill="none" xmlns="http://www.w3.org/2000/svg">
<path d="M6.24799 0.00292894C6.24799 0.00292894 3.89492 0.221637 2.35604 1.89319C2.34883 1.8971 2.34016 1.90296 2.33295 1.90882C2.06588 2.24274 1.86522 2.76022 1.61692 3.50226C1.36862 4.24431 1.10589 5.1992 0.86625 6.26736C0.388418 8.40562 9.03181e-05 11.0301 9.03181e-05 13.5004C-0.00135319 13.5882 0.0145265 13.6741 0.0462855 13.7503C0.586192 15.0333 1.57939 15.8085 2.50618 16.2967C3.43297 16.7849 4.28902 16.9802 4.72355 16.9997C4.84625 17.0055 4.96318 16.9294 5.03536 16.7966L5.93617 15.1094C6.6623 15.3418 7.51402 15.5 8.5 15.5C9.48598 15.5 10.3377 15.3418 11.0638 15.1094L11.9646 16.7966C12.0368 16.9294 12.1537 17.0055 12.2765 16.9997C12.711 16.9802 13.567 16.7849 14.4938 16.2967C15.4206 15.8085 16.4138 15.0333 16.9537 13.7503C16.9855 13.6741 17.0014 13.5882 16.9999 13.5004C16.9999 11.0301 16.6116 8.40562 16.1338 6.26736C15.8941 5.1992 15.6314 4.24431 15.3831 3.50226C15.1348 2.76022 14.9341 2.24274 14.6671 1.90882C14.6598 1.90296 14.6512 1.8971 14.644 1.89319C13.1051 0.221637 10.752 0.00292894 10.752 0.00292894C10.7246 -0.000976314 10.6986 -0.000976314 10.6712 0.00292894C10.5427 0.026362 10.4344 0.139622 10.3825 0.299747C10.3825 0.299747 10.2569 0.672723 10.1746 1.20582C9.45422 1.0496 8.84791 1.00274 8.5 1.00274C8.15209 1.00274 7.54578 1.0496 6.82543 1.20582C6.74314 0.672723 6.61755 0.299747 6.61755 0.299747C6.55403 0.104472 6.40534 -0.0146457 6.24799 0.00292894ZM6.01701 1.08085C6.04444 1.18239 6.06321 1.27808 6.0863 1.39329C5.25335 1.65496 4.34099 2.08261 3.48782 2.79927C3.35357 2.87543 3.26551 3.05118 3.26118 3.2484C3.25829 3.44368 3.34058 3.62528 3.4705 3.71121C3.60187 3.79517 3.75778 3.76979 3.86893 3.64286C5.58104 2.20759 7.75943 2.00255 8.5 2.00255C9.24057 2.00255 11.419 2.20759 13.1311 3.64286C13.2422 3.76979 13.3981 3.79517 13.5295 3.71121C13.6594 3.62528 13.7417 3.44368 13.7388 3.2484C13.7345 3.05118 13.6464 2.87543 13.5122 2.79927C12.659 2.08261 11.7467 1.65496 10.9137 1.39329C10.9368 1.27808 10.9556 1.18239 10.983 1.08085C11.4045 1.15115 13.043 1.44992 14.1589 2.64305C14.2311 2.73288 14.4823 3.23278 14.7132 3.92406C14.9442 4.61533 15.1867 5.51555 15.4177 6.54855C15.8681 8.5638 16.2319 11.0496 16.2492 13.3285C15.8292 14.2483 15.0409 14.9317 14.2282 15.3594C13.4891 15.748 12.799 15.9218 12.4381 15.9686L11.8145 14.8282C12.1321 14.6896 12.4179 14.5392 12.6691 14.3908C13.6017 13.8362 14.1012 13.2504 14.1012 13.2504C14.2542 13.0649 14.2672 12.7466 14.13 12.5396C13.9929 12.3326 13.7576 12.315 13.6046 12.5005C13.6046 12.5005 13.2177 12.979 12.3688 13.4847C12.057 13.6702 11.6788 13.8538 11.2486 14.0159C11.149 14.0003 11.0494 14.0393 10.9714 14.1252C10.2828 14.3518 9.46432 14.5002 8.5 14.5002C7.52846 14.5002 6.70849 14.3381 6.01701 14.1096C5.93906 14.0393 5.84378 14.01 5.75139 14.0315C5.31975 13.8694 4.94442 13.6702 4.63116 13.4847C3.78232 12.979 3.39543 12.5005 3.39543 12.5005C3.31171 12.3951 3.19622 12.3502 3.08362 12.3756C2.9407 12.4049 2.82233 12.5435 2.78335 12.7329C2.74293 12.9204 2.78912 13.1235 2.89884 13.2504C2.89884 13.2504 3.39832 13.8362 4.33089 14.3908C4.58207 14.5392 4.86791 14.6896 5.1855 14.8282L4.56186 15.9686C4.20096 15.9218 3.51092 15.748 2.7718 15.3594C1.95905 14.9317 1.17085 14.2483 0.750762 13.3285C0.768085 11.0496 1.13187 8.5638 1.58227 6.54855C1.81325 5.51555 2.05578 4.61533 2.28675 3.92406C2.51773 3.23278 2.76891 2.73288 2.84109 2.64305C3.95699 1.44992 5.59548 1.15115 6.01701 1.08085ZM6.09785 7.00159C5.15518 7.00159 4.43483 8.15958 4.43483 9.50112C4.43483 10.8427 5.15518 12.0006 6.09785 12.0006C7.04052 12.0006 7.76088 10.8427 7.76088 9.50112C7.76088 8.15958 7.04052 7.00159 6.09785 7.00159ZM10.9021 7.00159C9.95948 7.00159 9.23912 8.15958 9.23912 9.50112C9.23912 10.8427 9.95948 12.0006 10.9021 12.0006C11.8448 12.0006 12.5652 10.8427 12.5652 9.50112C12.5652 8.15958 11.8448 7.00159 10.9021 7.00159ZM6.09785 8.0014C6.58434 8.0014 7.02175 8.63409 7.02175 9.50112C7.02175 10.3681 6.58434 11.0008 6.09785 11.0008C5.61136 11.0008 5.17395 10.3681 5.17395 9.50112C5.17395 8.63409 5.61136 8.0014 6.09785 8.0014ZM10.9021 8.0014C11.3886 8.0014 11.8261 8.63409 11.8261 9.50112C11.8261 10.3681 11.3886 11.0008 10.9021 11.0008C10.4157 11.0008 9.97824 10.3681 9.97824 9.50112C9.97824 8.63409 10.4157 8.0014 10.9021 8.0014Z" fill="white"/>
</svg>
