<svg width="17" height="17" viewBox="0 0 17 17" fill="none" xmlns="http://www.w3.org/2000/svg">
<path d="M5.02273 0C2.25346 0 0 2.25346 0 5.02273V11.9773C0 14.7465 2.25346 17 5.02273 17H11.9773C14.7465 17 17 14.7465 17 11.9773V5.02273C17 2.25346 14.7465 0 11.9773 0H5.02273ZM5.02273 0.772727H11.9773C14.3289 0.772727 16.2273 2.67113 16.2273 5.02273V11.9773C16.2273 14.3289 14.3289 16.2273 11.9773 16.2273H5.02273C2.67113 16.2273 0.772727 14.3289 0.772727 11.9773V5.02273C0.772727 2.67113 2.67113 0.772727 5.02273 0.772727ZM13.1364 3.09091C12.9314 3.09091 12.7349 3.17232 12.59 3.31724C12.445 3.46215 12.3636 3.6587 12.3636 3.86364C12.3636 4.06858 12.445 4.26512 12.59 4.41004C12.7349 4.55495 12.9314 4.63636 13.1364 4.63636C13.3413 4.63636 13.5379 4.55495 13.6828 4.41004C13.8277 4.26512 13.9091 4.06858 13.9091 3.86364C13.9091 3.6587 13.8277 3.46215 13.6828 3.31724C13.5379 3.17232 13.3413 3.09091 13.1364 3.09091ZM8.5 4.25C6.15737 4.25 4.25 6.15737 4.25 8.5C4.25 10.8426 6.15737 12.75 8.5 12.75C10.8426 12.75 12.75 10.8426 12.75 8.5C12.75 6.15737 10.8426 4.25 8.5 4.25ZM8.5 5.02273C10.425 5.02273 11.9773 6.57498 11.9773 8.5C11.9773 10.425 10.425 11.9773 8.5 11.9773C6.57498 11.9773 5.02273 10.425 5.02273 8.5C5.02273 6.57498 6.57498 5.02273 8.5 5.02273Z" fill="white"/>
</svg>
