<svg width="110" height="53" viewBox="0 0 110 53" fill="none" xmlns="http://www.w3.org/2000/svg">
<path d="M8.544 10.664L9.792 8.504V20.216L8.544 15.416C7.776 12.392 7.2 10.424 6.336 9.608C6.144 9.368 5.712 9.128 5.04 9.56C4.512 9.848 4.08 10.52 3.792 11.864C2.928 15.464 3.504 19.736 7.008 24.536L7.872 25.688C11.808 31.112 12.528 37.784 10.752 43.112C10.272 44.6 9.024 47.096 6.912 47.24C5.568 47.384 4.272 46.376 3.264 44.696L1.872 47.24V33.416L3.072 39.512C4.032 44.264 4.848 45.32 5.664 45.944C6.096 46.28 6.672 46.52 7.248 46.328C8.256 45.944 8.688 44.744 9.024 43.4C10.032 39.08 9.552 35.72 5.28 28.808L4.464 27.416C1.152 22.52 0.624 16.136 2.16 12.2C2.736 10.712 3.744 8.36 6.144 8.36C7.104 8.36 7.776 9.128 8.544 10.664ZM22.8334 10.664L23.8894 8.36V20.36C22.2574 13.016 22.1614 9.368 19.8094 9.368C17.2174 9.368 17.3614 19.016 17.3614 28.424C17.3614 36.392 17.3134 46.088 19.8094 46.088C22.6414 46.088 23.1694 37.928 23.1694 35.048V33.56H24.3694C24.3694 35.192 24.6094 47.24 19.7614 47.24C15.6334 47.24 14.0494 36.44 14.0494 28.28C14.0494 19.352 15.3934 8.36 19.9534 8.36C21.2014 8.36 22.2094 8.792 22.8334 10.664ZM32.7626 8.456L37.9466 45.656L39.6266 47H32.7626L34.4906 45.656L32.8586 34.088H29.5466L27.9146 45.656L29.5946 47H24.8906L26.6186 45.656L31.8026 8.456H32.7626ZM29.7386 32.984H32.7146L31.2266 21.224L29.7386 32.984ZM45.981 25.64C49.677 25.64 49.533 22.136 49.533 17.72C49.533 13.016 49.917 9.944 45.981 9.944V25.64ZM45.981 27.032V45.656L47.661 47H41.181L42.861 45.656V9.944L41.181 8.6H45.405C50.157 8.6 52.605 11.384 52.605 17.672C52.605 21.752 50.781 25.736 48.477 26.504C51.261 27.32 51.597 29.72 52.029 33.128L53.565 45.656L55.245 47H50.541L48.765 31.592C48.285 27.32 47.661 27.032 45.981 27.032ZM58.7025 9.944L57.0225 8.6H63.5025L61.8225 9.944V45.656L63.5025 47H57.0225L58.7025 45.656V9.944ZM65.4131 8.6H70.1171L75.6851 32.264V9.944L74.0051 8.6H78.7091L77.0291 9.944V47H75.7811L68.4371 16.04V45.656L70.1171 47H65.4131L67.0931 45.656V9.944L65.4131 8.6ZM85.4475 45.656L87.1275 47H80.6475L82.3275 45.656C82.3275 45.56 82.3275 9.944 82.3275 9.944L80.6475 8.6H91.7835V20.456L89.4795 9.944H85.4475V25.64H87.7995L89.7195 19.16V34.712L87.7995 26.744H85.4475V45.656ZM100.253 8.36C104.573 8.36 105.965 19.976 105.965 28.136C105.965 35.72 104.189 47.24 100.061 47.24C95.9805 47.24 94.2525 36.44 94.2525 28.28C94.2525 19.352 95.6445 8.36 100.253 8.36ZM97.5645 28.424C97.5645 36.2 97.3725 46.088 100.109 46.088C102.653 46.088 102.653 36.248 102.653 28.472C102.653 19.4 102.605 9.368 100.109 9.368C97.3245 9.368 97.5645 19.448 97.5645 28.424Z" fill="#FF0000"/>
</svg>
